<svg width="24" height="24" viewBox="0 0 24 24" fill="none" xmlns="http://www.w3.org/2000/svg">
<path d="M4.98301 7.197C6.19141 7.197 7.17101 6.2174 7.17101 5.009C7.17101 3.8006 6.19141 2.821 4.98301 2.821C3.77461 2.821 2.79501 3.8006 2.79501 5.009C2.79501 6.2174 3.77461 7.197 4.98301 7.197Z" fill="white"/>
<path d="M9.237 8.855V20.994H13.006V14.991C13.006 13.407 13.304 11.873 15.268 11.873C17.205 11.873 17.229 13.684 17.229 15.091V20.995H21V14.338C21 11.068 20.296 8.555 16.474 8.555C14.639 8.555 13.409 9.562 12.906 10.515H12.855V8.855H9.237ZM3.095 8.855H6.87V20.994H3.095V8.855Z" fill="white"/>
</svg>
